# xmcd
#
# Track frame offsets: 
#        150
#        31747
#        56769
#        113444
#        142980
#        173296
#        223702
#
# Disc length: 3518 seconds
#
# Revision: 0
# Processed by: cddbd v1.5.2PL0 Copyright (c) Steve Scherf et al.
# Submitted via: ExactAudioCopy v0.95b4
#
DISCID=510dbc07
DTITLE=Eric Clapton - The Eyes Of Blues, Fukuoka, Japan, November 13, 
DTITLE=1999 - CD2
DYEAR=1999
DGENRE=Blues
TTITLE0=Gin House
TTITLE1=Cocaine
TTITLE2=Old Love
TTITLE3=Badge
TTITLE4=Wonderful Tonight
TTITLE5=Layla
TTITLE6=Sunshine Of Your Love
EXTD=
EXTT0=
EXTT1=
EXTT2=
EXTT3=
EXTT4=
EXTT5=
EXTT6=
PLAYORDER=
